<svg width="50" height="50" viewBox="0 0 1.5 1.5" xmlns="http://www.w3.org/2000/svg"><path d="M1 .75a.25.25 0 1 0-.073.177A.24.24 0 0 0 1 .754zm.135 0a.383.383 0 1 1-.112-.272.37.37 0 0 1 .112.266v.007zm.105-.4a.09.09 0 1 1-.026-.064.1.1 0 0 1 .026.062zM.75.135.675.134H.572L.478.137a1 1 0 0 0-.105.011L.378.147a.4.4 0 0 0-.073.019L.308.165a.26.26 0 0 0-.142.141L.165.308a.4.4 0 0 0-.018.068v.002a1 1 0 0 0-.01.099v.001L.134.572v.103L.135.75.134.825v.103l.003.094a1 1 0 0 0 .011.105l-.001-.005a.4.4 0 0 0 .019.073l-.001-.003a.26.26 0 0 0 .141.142l.002.001q.03.011.068.018h.002a1 1 0 0 0 .099.01h.001l.094.003h.103l.074-.002.075.001h.103l.094-.003a1 1 0 0 0 .105-.011l-.005.001a.4.4 0 0 0 .073-.019l-.003.001a.26.26 0 0 0 .142-.141l.001-.002a.4.4 0 0 0 .018-.068v-.002a1 1 0 0 0 .01-.099v-.001l.003-.094V.824L1.364.749l.001-.075V.571L1.362.477a1 1 0 0 0-.011-.105l.001.005a.4.4 0 0 0-.019-.073l.001.003a.26.26 0 0 0-.141-.142L1.191.164a.4.4 0 0 0-.068-.018h-.002a1 1 0 0 0-.099-.01h-.001L.927.133H.824zM1.5.75q0 .224-.005.31a.415.415 0 0 1-.437.435h.001Q.973 1.5.749 1.5t-.31-.005a.415.415 0 0 1-.435-.437v.001Q-.001.973-.001.749t.005-.31A.415.415 0 0 1 .441.005H.44Q.526 0 .75 0t.31.005a.415.415 0 0 1 .435.437V.441Q1.5.526 1.5.75"/></svg>
