<svg xmlns="http://www.w3.org/2000/svg" width="50" height="50" viewBox="0 0 74.999 75" xml:space="preserve"><path d="M73.958 62.365 63.384 72.854c-1.561 1.601-3.63 2.143-5.645 2.146-8.911-.267-17.333-4.644-24.249-9.138-11.351-8.259-21.767-18.498-28.304-30.873C2.679 29.801-.262 23.18.019 17.388c.025-2.179.612-4.317 2.147-5.721L12.739 1.098c2.196-1.868 4.319-1.222 5.724.954l8.507 16.131c.895 1.911.382 3.959-.954 5.324l-3.896 3.894c-.24.329-.394.704-.398 1.113 1.494 5.783 6.02 11.112 10.018 14.78s8.295 8.637 13.874 9.814c.69.192 1.534.26 2.027-.199l4.532-4.609c1.562-1.184 3.818-1.763 5.486-.795h.08l15.344 9.059c2.253 1.412 2.487 4.141.875 5.801"/></svg>
