<svg width="50" height="50" viewBox="0 0 2 2" xmlns="http://www.w3.org/2000/svg"><path d="M0 .648c0 .059.021.123.049.191s.063.133.09.182c.074.129.17.256.279.361s.238.193.383.246c.084.033.168.07.262.07a.5.5 0 0 0 .174-.043c.059-.025.111-.064.131-.111a.3.3 0 0 0 .023-.068.3.3 0 0 0 .01-.068c0-.01 0-.02-.002-.021q-.01-.017-.035-.031c-.035-.018-.041-.023-.094-.055-.055-.031-.111-.066-.16-.092a.1.1 0 0 0-.045-.02c-.031 0-.07.043-.103.09-.035.047-.074.09-.102.09q-.02 0-.043-.016C.794 1.337.786 1.335.776 1.33A.97.97 0 0 1 .391.947C.379.927.352.886.352.865.352.84.387.81.422.779.455.75.49.715.49.672A.3.3 0 0 0 .478.623L.417.457Q.401.416.397.4.391.39.389.377C.387.364.383.359.381.352A.1.1 0 0 0 .356.313.2.2 0 0 0 .299.301L.236.299.215.301H.19a.3.3 0 0 0-.141.146.5.5 0 0 0-.051.201z"/></svg>
