<svg xmlns="http://www.w3.org/2000/svg" width="200" viewBox="0 0 150 150" height="200" version="1.0"><defs><clipPath id="a"><path d="M79.63 28.715h47.531v80.278H79.63Zm0 0"/></clipPath><clipPath id="b"><path d="M51.111 28.715h47.593v80.278H51.111Zm0 0"/></clipPath><clipPath id="c"><path d="M22.855 28.715H70.37v80.278H22.855Zm0 0"/></clipPath></defs><g clip-path="url(#a)"><path fill="#401211" d="M127.143 68.865 87.01 109l-7.281-7.28L112.6 68.843 79.745 35.989l7.264-7.258Zm0 0"/></g><g clip-path="url(#b)"><path fill="#401211" d="M98.68 68.865 58.539 109l-7.28-7.28 32.876-32.876-32.854-32.855 7.258-7.258Zm0 0"/></g><g clip-path="url(#c)"><path fill="#401211" d="M70.27 68.865 30.136 109l-7.281-7.28 32.871-32.876-32.854-32.855 7.264-7.258Zm0 0"/></g></svg>
