<svg xmlns="http://www.w3.org/2000/svg" xmlns:xlink="http://www.w3.org/1999/xlink" width="1080" zoomAndPan="magnify" viewBox="0 0 810 809.999993" height="1080" preserveAspectRatio="xMidYMid meet" version="1.0"><defs><clipPath id="58f619bff7"><path d="M 430 155.058594 L 686.667969 155.058594 L 686.667969 588.558594 L 430 588.558594 Z M 430 155.058594 " clip-rule="nonzero"/></clipPath><clipPath id="e61981e891"><path d="M 276 155.058594 L 533 155.058594 L 533 588.558594 L 276 588.558594 Z M 276 155.058594 " clip-rule="nonzero"/></clipPath><clipPath id="65deb4ffde"><path d="M 123.417969 155.058594 L 380 155.058594 L 380 588.558594 L 123.417969 588.558594 Z M 123.417969 155.058594 " clip-rule="nonzero"/></clipPath></defs><g clip-path="url(#58f619bff7)"><path fill="#401211" d="M 686.574219 371.871094 L 469.851562 588.597656 L 430.535156 549.285156 L 608.039062 371.753906 L 430.625 194.339844 L 469.851562 155.148438 Z M 686.574219 371.871094 " fill-opacity="1" fill-rule="nonzero"/></g><g clip-path="url(#e61981e891)"><path fill="#401211" d="M 532.871094 371.871094 L 316.113281 588.597656 L 276.800781 549.285156 L 454.332031 371.753906 L 276.917969 194.339844 L 316.113281 155.148438 Z M 532.871094 371.871094 " fill-opacity="1" fill-rule="nonzero"/></g><g clip-path="url(#65deb4ffde)"><path fill="#401211" d="M 379.460938 371.871094 L 162.734375 588.597656 L 123.417969 549.285156 L 300.921875 371.753906 L 123.507812 194.339844 L 162.734375 155.148438 Z M 379.460938 371.871094 " fill-opacity="1" fill-rule="nonzero"/></g></svg>