<svg xmlns="http://www.w3.org/2000/svg" xmlns:xlink="http://www.w3.org/1999/xlink" width="1080" zoomAndPan="magnify" viewBox="0 0 810 809.999993" height="1080" preserveAspectRatio="xMidYMid meet" version="1.0"><defs><filter x="0%" y="0%" width="100%" height="100%" id="47b5c13dc3"><feColorMatrix values="0 0 0 0 1 0 0 0 0 1 0 0 0 0 1 0 0 0 1 0" color-interpolation-filters="sRGB"/></filter><mask id="ff89fcbce5"><g filter="url(#47b5c13dc3)"><rect x="-81" width="972" fill="#000000" y="-80.999999" height="971.999992" fill-opacity="0.62"/></g></mask><clipPath id="873ddd5d5e"><rect x="0" width="423" y="0" height="542"/></clipPath></defs><g mask="url(#ff89fcbce5)"><g transform="matrix(1, 0, 0, 1, 194, 134)"><g clip-path="url(#873ddd5d5e)"><path fill="#1a1a1a" d="M 416.6875 523.117188 C 416.40625 516.578125 416.601562 509.742188 415.859375 502.984375 C 414.433594 490.019531 412.984375 477.042969 411.199219 464.121094 C 405.425781 422.335938 399.207031 380.628906 394.183594 338.730469 C 388.9375 295.042969 385.785156 251.175781 382.355469 207.3125 C 378.835938 162.277344 376.691406 116.578125 370.460938 71.800781 C 400.695312 55.757812 381.917969 0.777344 348.214844 7.316406 C 347.070312 7.535156 346.363281 8.210938 345.96875 9.035156 C 312.558594 13.039062 278.742188 23.90625 247.183594 34.136719 C 209.5625 46.332031 173.042969 61.742188 138.199219 80.480469 C 105.484375 98.066406 74.558594 119.125 47.238281 144.347656 C 30.976562 159.367188 0.953125 185.460938 20.535156 209.011719 C 21.421875 210.078125 22.507812 210.558594 23.570312 210.613281 C 31.605469 218.675781 42.4375 223.476562 54.339844 222.441406 C 57.660156 222.15625 60.84375 221.292969 63.902344 220.015625 C 76.074219 231.484375 89.296875 241.964844 101.71875 253.128906 C 117.175781 267.023438 132.1875 281.40625 147.101562 295.875 C 176.9375 324.832031 205.738281 354.835938 234.5 384.847656 C 263.316406 414.929688 291.875 445.28125 321.628906 474.433594 C 343.59375 495.960938 365.300781 518.785156 390.015625 537.207031 C 390.742188 537.742188 391.464844 537.925781 392.132812 537.878906 C 393.515625 539 395.386719 539.742188 396.894531 540.238281 C 400.636719 541.472656 404.503906 540.757812 408.128906 539.5625 C 414.035156 537.617188 420.933594 529.050781 416.6875 523.117188 Z M 61.882812 210.765625 C 61.820312 210.71875 61.765625 210.683594 61.707031 210.644531 C 60.042969 209.585938 58.460938 210.765625 58.03125 212.296875 C 46.292969 216.023438 36.359375 210.011719 26.632812 202.800781 C 11.488281 178.292969 56.460938 147.382812 72.5625 134.273438 C 100.078125 111.871094 130.582031 93.421875 162.222656 77.496094 C 192.589844 62.21875 224.34375 49.605469 256.539062 38.777344 C 286.585938 28.671875 317.609375 22.4375 347.949219 13.691406 C 348.160156 13.757812 348.34375 13.855469 348.582031 13.882812 C 366.101562 15.847656 379.324219 29.554688 378.003906 47.871094 C 377.382812 56.394531 373.515625 61.453125 367.976562 64.359375 C 366.691406 63.898438 365.136719 64.375 364.632812 65.796875 C 352.671875 69.953125 335.441406 66.792969 324.621094 65.894531 C 299.238281 63.792969 283.335938 82.410156 265.523438 97.128906 C 244.21875 114.722656 213.835938 112.875 187.992188 114.144531 C 167.242188 115.167969 144.851562 119.15625 129.117188 133.878906 C 117.535156 144.714844 108.988281 158.609375 99.792969 171.417969 C 89.863281 185.253906 79.214844 200.617188 64.292969 209.476562 C 63.480469 209.953125 62.679688 210.375 61.882812 210.765625 Z M 402.730469 531.878906 C 400.15625 532.519531 397.625 532.1875 395.085938 531.597656 C 394.726562 531.511719 394.324219 531.46875 393.921875 531.445312 C 393.871094 531.410156 393.839844 531.363281 393.796875 531.328125 C 368.300781 512.332031 345.953125 488.597656 323.691406 466.019531 C 295.386719 437.328125 267.523438 408.234375 239.773438 379 C 212.089844 349.828125 184.277344 320.765625 155.566406 292.589844 C 129.074219 266.585938 101.332031 237.96875 70.492188 216.53125 C 79.980469 210.484375 88 200.949219 94.371094 192.972656 C 106.875 177.308594 116.785156 159.707031 129.996094 144.589844 C 150.238281 121.429688 182.640625 122.523438 210.792969 121.253906 C 239 119.976562 260.261719 112.171875 280.84375 92.792969 C 296.035156 78.488281 310.570312 70.753906 331.714844 73.648438 C 342.480469 75.125 354.09375 77.339844 364.695312 74.167969 C 366.019531 117.046875 370.675781 160.035156 374.175781 202.757812 C 377.902344 248.167969 381.5625 293.539062 386.691406 338.8125 C 391.46875 380.902344 397.414062 422.84375 403.03125 464.820312 C 404.757812 477.742188 406.246094 490.703125 407.714844 503.652344 C 408.320312 508.980469 408.902344 514.3125 409.472656 519.644531 C 409.59375 520.847656 410.726562 524.199219 411.199219 525.160156 C 410.683594 525.933594 410.183594 526.738281 409.578125 527.554688 C 407.976562 529.710938 405.300781 531.230469 402.730469 531.878906 Z M 402.730469 531.878906 " fill-opacity="1" fill-rule="nonzero"/><path fill="#1a1a1a" d="M 171.59375 191.910156 C 169.851562 190.355469 168.167969 188.761719 166.503906 187.117188 C 164.636719 185.277344 162.398438 184.859375 166.101562 185.058594 C 170.03125 185.277344 174.289062 186.222656 178.082031 184.621094 C 184.03125 182.101562 187.542969 176.992188 186.386719 170.246094 C 178.253906 122.648438 111.25 161.285156 102.714844 194.847656 C 97.222656 198.3125 101.101562 213.476562 103.113281 217.285156 C 108.699219 227.875 124.511719 229.949219 133.292969 222.828125 C 135.769531 220.816406 138.765625 216.183594 137.183594 212.6875 C 135.773438 209.5625 136.023438 209.796875 133.855469 207.527344 C 139.554688 206.976562 142.414062 208.878906 142.429688 213.234375 C 143.054688 216.410156 143.433594 217.734375 144.484375 220.773438 C 147.640625 229.902344 159.503906 239.546875 168.425781 233.191406 C 168.578125 233.191406 168.734375 233.164062 168.898438 233.09375 C 175.113281 230.496094 187.246094 223.621094 186.667969 215.378906 C 185.953125 205.269531 178.871094 198.386719 171.59375 191.910156 Z M 160.320312 181.121094 C 159.792969 181.351562 159.394531 181.886719 159.21875 182.453125 C 157.707031 177.066406 167.644531 175.300781 171.714844 176.8125 C 174.042969 177.683594 176.695312 179.574219 179.3125 180.136719 C 174.394531 183.226562 164.828125 179.152344 160.320312 181.121094 Z M 126.429688 220 C 126.859375 216.730469 125.523438 212.277344 124.707031 210.113281 C 123.261719 206.261719 121.871094 202.695312 125.648438 199.570312 C 127.808594 197.78125 130.125 197.726562 132.308594 198.488281 C 131.328125 198.644531 130.304688 198.871094 129.195312 199.257812 C 124.746094 200.78125 127.949219 206.195312 129.785156 207.960938 C 136.085938 214.027344 132.023438 218.109375 126.429688 220 Z M 180.199219 219.277344 C 177.914062 223.421875 173.324219 225.902344 169.628906 228.945312 C 169.3125 228.765625 168.953125 228.683594 168.566406 228.78125 C 148.742188 233.730469 150.792969 203.632812 138.007812 198.90625 C 134.03125 193.117188 124.464844 193.464844 120.640625 199.433594 C 118.558594 202.671875 119.058594 205.964844 120.21875 209.363281 C 121.003906 211.648438 121.988281 213.875 122.648438 216.207031 C 123.339844 218.664062 123 219.6875 121.199219 221.101562 C 119.601562 221.257812 118.089844 221.238281 116.863281 221.03125 C 111.882812 220.203125 108.203125 217.007812 105.679688 212.828125 C 103.703125 209.542969 101.570312 198.65625 105.816406 196.171875 C 106.480469 195.777344 106.5 194.882812 106.042969 194.414062 C 116.839844 174.535156 132.734375 156.621094 156.613281 153.46875 C 168.519531 151.902344 185.8125 162.460938 181.953125 176.390625 C 181.847656 176.78125 181.6875 177.105469 181.546875 177.433594 C 178.542969 175.652344 174.914062 174.191406 171.855469 173.050781 C 168.285156 171.722656 164.636719 172.449219 161.273438 173.953125 C 155.730469 176.433594 153.066406 182.632812 159.601562 185.539062 L 159.605469 185.539062 C 161.203125 189.808594 166.511719 193.375 169.523438 196.058594 C 175.167969 201.082031 185.136719 210.332031 180.199219 219.277344 Z M 180.199219 219.277344 " fill-opacity="1" fill-rule="nonzero"/><path fill="#1a1a1a" d="M 160.195312 154.777344 C 150.574219 152.917969 136.789062 163.191406 129.652344 168.570312 C 119.714844 176.0625 108.625 187.863281 106.238281 200.511719 C 106.011719 201.703125 107.582031 202.222656 108.054688 201.074219 C 117.140625 179.199219 137.078125 161.511719 160.285156 155.609375 C 160.738281 155.496094 160.582031 154.851562 160.195312 154.777344 Z M 160.195312 154.777344 " fill-opacity="1" fill-rule="nonzero"/><path fill="#1a1a1a" d="M 163.828125 192.835938 C 163.644531 192.542969 163.15625 192.726562 163.199219 193.066406 C 164.003906 199.953125 170.550781 203.761719 174.6875 208.742188 C 180.535156 215.757812 173.761719 222.875 166.515625 223.949219 C 160.453125 224.847656 158.753906 217.226562 155.230469 214.152344 C 154.589844 213.59375 153.503906 213.964844 153.679688 214.925781 C 155.84375 226.605469 169.214844 231.269531 176.582031 220.691406 C 184.335938 209.5625 169.027344 201.25 163.828125 192.835938 Z M 163.828125 192.835938 " fill-opacity="1" fill-rule="nonzero"/><path fill="#1a1a1a" d="M 238.21875 136.300781 C 228.367188 143.570312 234.550781 158.453125 241.5 165.757812 C 248.375 172.984375 264.863281 175.464844 267.925781 163.175781 C 268.328125 161.582031 267.417969 159.199219 267.007812 157.742188 C 265.777344 155.535156 264.785156 153.21875 264.035156 150.800781 C 275.730469 155.058594 278.554688 161.699219 272.5 170.714844 C 268.558594 179.796875 263.011719 187.230469 260.929688 197.09375 C 257.929688 211.289062 269.933594 217.933594 281.722656 217.292969 C 282.007812 217.449219 282.34375 217.558594 282.753906 217.585938 C 309.105469 219.125 308.84375 195.347656 309.738281 175.464844 C 309.847656 173.078125 310.132812 170.722656 310.472656 168.355469 C 312.160156 156.71875 315.613281 171.109375 316.914062 174.992188 C 318.492188 179.691406 320.246094 182.53125 325.007812 184.292969 C 334.058594 187.636719 344.4375 176.175781 348.777344 170.011719 C 378.589844 127.683594 264.449219 88.269531 238.21875 136.300781 Z M 260.035156 151.539062 C 260.25 153.28125 261.40625 155.078125 262.203125 156.570312 C 265.347656 162.429688 260.011719 168.214844 253.601562 167.46875 C 253.035156 160.867188 251.535156 150.449219 257.34375 145.820312 C 259.351562 144.226562 262.042969 143.394531 264.710938 143.339844 C 261.296875 144.015625 259.535156 147.375 260.035156 151.539062 Z M 319.925781 173.886719 C 318.25 169.46875 319.613281 160.1875 314.632812 157.640625 C 317.359375 157.019531 320.363281 157.808594 322.816406 159.582031 C 325.734375 161.683594 325.765625 167.050781 326.617188 170.234375 C 327.515625 173.628906 330.246094 179.304688 334.238281 178.71875 C 328.871094 182.425781 323.183594 182.4375 319.925781 173.886719 Z M 336.242188 177.167969 C 336.179688 177.097656 336.109375 177.035156 336.03125 176.992188 C 331.472656 174.652344 330.539062 172.25 329.589844 167.257812 C 328.9375 163.898438 328.425781 160.425781 326.152344 157.742188 C 321.871094 152.710938 311.046875 152.210938 309.167969 159.621094 C 309.160156 159.648438 309.175781 159.664062 309.175781 159.683594 C 307.867188 161.792969 307.074219 164.609375 306.804688 165.914062 C 305.121094 174.066406 305.464844 182.445312 304.988281 190.722656 C 304.101562 206.109375 298.164062 211.824219 282.914062 213.136719 C 282.179688 213.203125 281.628906 213.535156 281.257812 213.984375 C 269.800781 212.277344 261.933594 204.648438 264.792969 190.804688 C 266.597656 182.101562 274.453125 173.53125 278.230469 165.5 C 281.730469 158.050781 280.117188 151.03125 274.589844 146.707031 C 274.882812 138.007812 262.019531 139.265625 256.894531 141.808594 C 248.554688 145.941406 248.285156 159.296875 251.871094 167.101562 C 241.058594 164.148438 234.996094 149.453125 238.046875 139.292969 C 254.289062 118.554688 277.527344 114.074219 302.980469 120.746094 C 313.664062 123.539062 324.027344 128.097656 333.117188 134.363281 C 340.171875 139.230469 345.332031 146.070312 347.296875 154.414062 C 348.667969 160.242188 343.003906 171.285156 336.242188 177.167969 Z M 336.242188 177.167969 " fill-opacity="1" fill-rule="nonzero"/><path fill="#1a1a1a" d="M 339.316406 140.921875 C 326.660156 127.570312 307.839844 122.28125 290.03125 120.535156 C 279.414062 119.492188 257.820312 121.238281 250.355469 129.988281 C 249.90625 130.515625 250.601562 131.316406 251.199219 131.023438 C 265.300781 124.148438 282.21875 122.0625 297.601562 124.285156 C 313.398438 126.578125 325.21875 133.609375 338.09375 142.359375 C 338.980469 142.964844 340.050781 141.699219 339.316406 140.921875 Z M 339.316406 140.921875 " fill-opacity="1" fill-rule="nonzero"/><path fill="#1a1a1a" d="M 291.128906 205.222656 C 285.503906 206.84375 278.222656 207.023438 273.4375 203.160156 C 268.078125 198.835938 271.625 189.878906 274.105469 184.878906 C 274.363281 184.363281 273.585938 183.761719 273.164062 184.183594 C 268.585938 188.761719 266.363281 197.472656 270.324219 203.082031 C 274.894531 209.546875 285.109375 208.75 291.328125 205.632812 C 291.566406 205.515625 291.367188 205.152344 291.128906 205.222656 Z M 291.128906 205.222656 " fill-opacity="1" fill-rule="nonzero"/><path fill="#1a1a1a" d="M 325.464844 92.464844 C 325.226562 92.4375 325.015625 92.46875 324.8125 92.507812 C 317.707031 90.105469 308.660156 95.753906 308.367188 103.292969 C 308.035156 112.125 316.742188 117.46875 324.511719 117.714844 C 331.25 117.921875 337.589844 114.15625 339.15625 107.535156 C 341.035156 99.597656 332.320312 93.226562 325.464844 92.464844 Z M 337.15625 108.367188 C 335.300781 112.066406 329.285156 113.085938 325.636719 113.167969 C 320.558594 113.28125 316.445312 111.492188 313.664062 107.097656 C 310.746094 102.503906 313.078125 97.769531 317.71875 95.746094 C 319.542969 94.949219 321.476562 94.832031 323.421875 94.679688 C 323.507812 95.328125 323.875 95.945312 324.59375 96.257812 C 329.15625 98.242188 341.339844 100.058594 337.15625 108.367188 Z M 337.15625 108.367188 " fill-opacity="1" fill-rule="nonzero"/><path fill="#1a1a1a" d="M 222.105469 212.5 C 216.449219 208.582031 207.714844 212.472656 204.90625 218.085938 C 201.386719 225.105469 207.421875 235.933594 214.96875 237.078125 C 221.675781 238.097656 232.960938 234.414062 235.304688 227.199219 C 237.710938 219.800781 229.34375 212.390625 222.105469 212.5 Z M 231.578125 227.945312 C 228.761719 231.976562 221.113281 233.9375 216.613281 233.609375 C 209.984375 233.117188 205.695312 223.519531 209.238281 218.140625 C 211.515625 214.664062 215.542969 215.011719 219.203125 214.828125 C 219.328125 215.078125 219.550781 215.292969 219.898438 215.4375 C 224.582031 217.328125 237.28125 219.792969 231.578125 227.945312 Z M 231.578125 227.945312 " fill-opacity="1" fill-rule="nonzero"/><path fill="#1a1a1a" d="M 142.703125 236.9375 C 138.5 236.894531 135.335938 243.9375 134.980469 247.269531 C 134.226562 254.269531 139.960938 258.414062 146.457031 257.625 C 151.828125 256.972656 159.011719 252.335938 159.148438 246.296875 C 159.324219 238.800781 149.167969 234.628906 142.703125 236.9375 Z M 146.789062 254.25 C 142.019531 255.328125 138.363281 252.988281 138.171875 248.03125 C 138.078125 245.644531 138.789062 243.136719 140.222656 241.21875 C 140.542969 240.796875 140.894531 240.464844 141.273438 240.203125 C 141.476562 240.308594 141.703125 240.390625 141.949219 240.402344 C 143.257812 240.445312 144.40625 240.183594 145.703125 240 C 148.214844 239.640625 150.675781 240.296875 152.960938 241.25 C 155.058594 242.125 156.863281 244.238281 156.453125 246.582031 C 155.730469 250.707031 150.425781 253.425781 146.789062 254.25 Z M 146.789062 254.25 " fill-opacity="1" fill-rule="nonzero"/><path fill="#1a1a1a" d="M 342.050781 212.832031 C 341.867188 212.78125 341.703125 212.796875 341.535156 212.78125 C 341.4375 212.660156 341.316406 212.578125 341.152344 212.558594 C 330.34375 211.445312 320.34375 220.863281 319.265625 231.355469 C 318.269531 240.945312 327.070312 248.722656 335.96875 249.222656 C 344.414062 249.691406 352.609375 243.136719 355.371094 235.46875 C 359.074219 225.167969 351.5625 215.820312 342.050781 212.832031 Z M 352.449219 233.332031 C 351.222656 239.832031 344.484375 243.796875 338.371094 244.375 C 331.378906 245.03125 325.925781 240.761719 323.886719 234.1875 C 320.851562 224.40625 331.304688 217.460938 339.273438 214.488281 C 339.058594 215.535156 339.453125 216.75 340.742188 217.265625 C 348.425781 220.320312 354.164062 224.21875 352.449219 233.332031 Z M 352.449219 233.332031 " fill-opacity="1" fill-rule="nonzero"/><path fill="#1a1a1a" d="M 369.328125 226.820312 C 367.351562 208.910156 350.027344 192.726562 331.195312 198.609375 C 330.496094 198.824219 330.179688 199.320312 330.144531 199.863281 C 315.75 203.351562 305.777344 214.320312 304.410156 230.507812 C 302.796875 249.597656 319.976562 264.53125 338.582031 262.007812 C 355.71875 259.679688 371.367188 245.25 369.328125 226.820312 Z M 340.902344 257.371094 C 321.628906 260.5625 307.179688 246.902344 308.546875 227.835938 C 309.652344 212.429688 320.820312 206.097656 333.3125 202.222656 C 337.492188 203.011719 341.746094 202.882812 345.96875 203.78125 C 355.332031 205.769531 361.105469 213.132812 364.097656 221.757812 C 370.253906 239.515625 358.429688 254.480469 340.902344 257.371094 Z M 340.902344 257.371094 " fill-opacity="1" fill-rule="nonzero"/><path fill="#1a1a1a" d="M 373.101562 294.210938 C 366.074219 279.816406 341.777344 273.121094 328.066406 281.335938 C 310.582031 288.789062 301.457031 312.742188 311.148438 329.828125 C 321.199219 347.535156 350.097656 351.082031 364.949219 337.839844 C 365.351562 337.933594 365.796875 337.894531 366.183594 337.625 C 379.546875 328.339844 379.625 307.585938 373.101562 294.210938 Z M 366.101562 331.503906 C 357.578125 335.824219 350.230469 339.808594 339.921875 339.148438 C 329.078125 338.449219 318.960938 331.980469 313.957031 322.394531 C 304.214844 303.714844 321.304688 289.457031 336.089844 281.84375 C 349.347656 280.925781 362.902344 285.734375 369.050781 298.722656 C 371.441406 303.78125 371.8125 309.6875 371.847656 315.1875 C 371.898438 321.734375 369.066406 326.425781 366.101562 331.503906 Z M 366.101562 331.503906 " fill-opacity="1" fill-rule="nonzero"/><path fill="#1a1a1a" d="M 268.804688 267.589844 C 259.503906 256.421875 241.558594 249.183594 226.167969 251.253906 C 225.949219 251.035156 225.640625 250.902344 225.28125 250.972656 C 204.4375 255.128906 189.992188 267.402344 184.445312 288.117188 C 180.410156 303.191406 183.496094 321.667969 195.3125 332.570312 C 215.867188 351.53125 251.578125 350.828125 268.878906 329.398438 C 269.082031 329.355469 269.28125 329.265625 269.4375 329.101562 C 285.804688 312.027344 283.132812 284.808594 268.804688 267.589844 Z M 201.160156 329.664062 C 188.25 320.285156 186.882812 303.683594 189.703125 289.238281 C 193.007812 272.292969 204.234375 263.496094 217.910156 256.632812 C 236.097656 254.546875 253.925781 259.230469 266.039062 274.132812 C 271.4375 280.773438 273.804688 289.441406 275.128906 297.707031 C 276.773438 308.046875 272.140625 315.671875 268.628906 324.605469 C 248.597656 339.984375 223.496094 345.875 201.160156 329.664062 Z M 201.160156 329.664062 " fill-opacity="1" fill-rule="nonzero"/><path fill="#1a1a1a" d="M 319.136719 389.789062 C 318.398438 380.238281 307.894531 375.617188 299.652344 378.429688 C 292.089844 379.320312 287.933594 386.746094 289.242188 394.328125 C 290.695312 402.742188 298.390625 408.664062 306.921875 406.871094 C 314.4375 405.292969 319.707031 397.132812 319.136719 389.789062 Z M 305.191406 402.023438 C 293.898438 403.433594 290.753906 388.722656 297.152344 381.851562 C 297.515625 382.632812 298.292969 383.210938 299.351562 382.996094 C 302.769531 382.296875 305.65625 381.375 309.128906 382.519531 C 312.527344 383.636719 314.539062 387.253906 315.125 390.546875 C 316.179688 396.53125 310.621094 401.347656 305.191406 402.023438 Z M 305.191406 402.023438 " fill-opacity="1" fill-rule="nonzero"/><path fill="#1a1a1a" d="M 330.019531 380.875 C 325.625 373.746094 319.542969 370.105469 311.800781 367.371094 C 308.519531 366.207031 303.800781 365.21875 299.648438 365.671875 C 299.503906 365.589844 299.328125 365.542969 299.113281 365.589844 C 282.195312 369.191406 271.609375 385.433594 276.398438 402.234375 C 280.242188 415.730469 300.226562 423.636719 312.472656 417.285156 C 327.632812 413.214844 339.132812 395.683594 330.019531 380.875 Z M 280.363281 400.882812 C 273.410156 388.324219 283.164062 378.0625 293.023438 371.238281 C 304.890625 368.894531 316.320312 372.464844 323.929688 382.578125 C 331.554688 392.71875 326.597656 400.890625 319.878906 408 C 319.75 407.964844 319.613281 407.945312 319.476562 408 C 305.894531 413.464844 288.941406 416.394531 280.363281 400.882812 Z M 280.363281 400.882812 " fill-opacity="1" fill-rule="nonzero"/><path fill="#1a1a1a" d="M 384.609375 397.953125 C 383.75 397.175781 382.710938 397.191406 381.898438 397.613281 C 375.050781 395.847656 368.53125 400.019531 364.738281 405.878906 C 359.738281 413.582031 362.289062 422.875 367.992188 429.3125 C 374.917969 437.132812 382.554688 430.015625 385.769531 423.171875 C 389.421875 415.40625 391.636719 404.300781 384.609375 397.953125 Z M 383.714844 415.449219 C 382.382812 422.300781 376.746094 433.246094 369.878906 423.792969 C 366.929688 419.742188 366.480469 415.046875 367.730469 410.324219 C 369.417969 403.925781 374.742188 401.089844 380.585938 400.078125 C 380.675781 400.457031 380.847656 400.835938 381.226562 401.175781 C 385.820312 405.324219 384.785156 409.957031 383.714844 415.449219 Z M 383.714844 415.449219 " fill-opacity="1" fill-rule="nonzero"/><path fill="#1a1a1a" d="M 323.152344 432.363281 C 322.535156 432.585938 322.199219 432.996094 322.058594 433.460938 C 319.171875 434.171875 316.652344 437.273438 315.765625 440.019531 C 313.789062 446.144531 317.136719 451.660156 323.054688 453.511719 C 329.253906 455.453125 334.777344 450.28125 335.363281 444.234375 C 336.050781 437.285156 330.6875 429.640625 323.152344 432.363281 Z M 332.804688 443.972656 C 332.199219 448.523438 327.640625 450.410156 323.59375 449.113281 C 320.371094 448.074219 319.058594 445.253906 319.320312 442.054688 C 319.574219 439.027344 321.0625 437.207031 323.304688 436.050781 C 323.785156 436.214844 324.355469 436.144531 324.796875 435.96875 C 330.019531 433.90625 333.441406 439.175781 332.804688 443.972656 Z M 332.804688 443.972656 " fill-opacity="1" fill-rule="nonzero"/><path fill="#1a1a1a" d="M 358.121094 8.375 C 353.207031 5.992188 348.042969 8.488281 343.84375 11.597656 C 343.847656 11.039062 343.550781 10.53125 342.792969 10.472656 C 335.425781 9.859375 329.089844 13.421875 323.769531 18.226562 C 318.582031 22.914062 311.261719 31.136719 310.257812 38.324219 C 310.105469 39.363281 311.21875 40.460938 312.246094 39.75 C 317.417969 36.140625 320.722656 28.878906 324.738281 24.121094 C 329.265625 18.75 334.667969 14.882812 341.519531 13.4375 C 341.347656 13.589844 341.175781 13.734375 341 13.882812 C 336.425781 17.832031 329.035156 25.296875 328.269531 31.679688 C 328.105469 33.023438 329.792969 34.332031 330.953125 33.300781 C 334.550781 30.128906 337.09375 24.992188 340.234375 21.335938 C 344.703125 16.136719 350.441406 11.015625 357.542969 10.410156 C 358.515625 10.324219 359.203125 8.894531 358.121094 8.375 Z M 358.121094 8.375 " fill-opacity="1" fill-rule="nonzero"/><path fill="#1a1a1a" d="M 323.550781 14.6875 C 315.570312 13.875 309.003906 17.1875 302.875 21.933594 C 302.960938 21.253906 302.640625 20.554688 301.804688 20.484375 C 293.121094 19.792969 283.777344 23.214844 275.917969 28.867188 C 275.730469 28.398438 275.3125 28.03125 274.699219 28.078125 C 266.363281 28.75 258.585938 32.148438 252.042969 37.292969 C 242.429688 35.738281 234.128906 40.390625 227.316406 46.925781 C 227.84375 46.148438 227.316406 44.800781 226.179688 44.824219 C 218.375 44.972656 211.179688 48.660156 205.15625 54.125 C 205.042969 54.070312 204.917969 54.019531 204.765625 54.003906 C 195.449219 52.996094 186.429688 57.550781 179.015625 64.46875 C 178.742188 64.03125 178.253906 63.714844 177.53125 63.769531 C 168.640625 64.386719 160.640625 68.671875 154.21875 74.726562 C 154.203125 73.71875 153.199219 72.660156 152.046875 73.097656 C 143.636719 76.308594 133.585938 82.855469 126.503906 91.1875 C 126.328125 91.070312 126.109375 90.992188 125.832031 91.015625 C 116.277344 91.765625 108.988281 97.480469 103.257812 104.828125 C 97.597656 112.085938 91.019531 123.871094 91.050781 133.269531 C 91.054688 134.417969 92.574219 134.96875 93.335938 134.136719 C 98.519531 128.46875 100.691406 119.730469 104.402344 113.039062 C 109.160156 104.472656 115.261719 97.917969 124.160156 94.160156 C 119.453125 100.667969 116.679688 108.058594 117.789062 115.695312 C 117.984375 117.039062 119.605469 117.46875 120.34375 116.273438 C 124.417969 109.660156 126.503906 102.21875 130.972656 95.726562 C 136.453125 87.777344 143.949219 81.625 152.191406 76.742188 C 152.109375 76.832031 152.015625 76.914062 151.929688 77.007812 C 145.976562 83.382812 134.105469 97.246094 137.828125 106.898438 C 138.226562 107.9375 139.542969 108.246094 140.316406 107.410156 C 142.585938 104.984375 143.554688 101.546875 144.886719 98.53125 C 147.183594 93.359375 150.335938 88.652344 153.808594 84.214844 C 159.355469 77.140625 167.03125 70.203125 175.898438 67.609375 C 168.84375 75.28125 163.636719 84.925781 161.648438 93.183594 C 161.152344 95.242188 163.640625 96.910156 165.066406 95.027344 C 170.28125 88.144531 174.277344 80.503906 179.644531 73.710938 C 185.707031 66.023438 192.640625 61.527344 201.234375 58.0625 C 194.578125 65.613281 189.875 75.28125 188.195312 83.984375 C 187.757812 86.253906 190.59375 88.042969 192.054688 85.859375 C 201.644531 71.5 207.714844 52.039062 226.613281 47.417969 C 226.757812 47.382812 226.871094 47.3125 226.992188 47.242188 C 226.902344 47.324219 226.816406 47.40625 226.730469 47.488281 C 220.628906 53.519531 210.167969 63.707031 209.894531 72.972656 C 209.867188 73.984375 211.019531 74.449219 211.816406 74.035156 C 218.125 70.765625 222.40625 61.558594 226.816406 56.125 C 232.34375 49.304688 239.570312 42.773438 248.242188 40.59375 C 241.421875 46.875 233.804688 54.871094 232.519531 64.273438 C 232.351562 65.503906 233.695312 66.355469 234.664062 65.457031 C 240.519531 60.003906 244.476562 52.679688 249.921875 46.78125 C 256.179688 39.992188 263.796875 34.558594 272.484375 31.542969 C 265.800781 37.25 260.605469 44.578125 258.535156 52.167969 C 257.902344 54.46875 260.800781 55.96875 262.265625 54.039062 C 272.304688 40.75 282.90625 24.917969 301.105469 23.34375 C 294.453125 28.882812 287.160156 37.488281 285.398438 45.957031 C 284.96875 48.015625 287.6875 48.492188 288.816406 47.292969 C 299.167969 36.277344 305.992188 18.929688 323.320312 17.367188 C 324.777344 17.238281 325.148438 14.847656 323.550781 14.6875 Z M 323.550781 14.6875 " fill-opacity="1" fill-rule="nonzero"/><path fill="#1a1a1a" d="M 96.265625 107.480469 C 89.019531 111.730469 84.164062 117.617188 80.484375 125.054688 C 76.894531 132.316406 72.992188 142.84375 74.039062 150.960938 C 74.199219 152.210938 76.0625 153.097656 76.878906 151.847656 C 80.675781 146.066406 81.445312 138.351562 83.636719 131.867188 C 86.476562 123.496094 91.195312 115.53125 98.527344 110.40625 C 100.53125 109.007812 98.253906 106.320312 96.265625 107.480469 Z M 96.265625 107.480469 " fill-opacity="1" fill-rule="nonzero"/><path fill="#1a1a1a" d="M 76.414062 126.054688 C 62.257812 134.398438 52.402344 153.226562 56.757812 169.640625 C 57.117188 170.996094 59.167969 170.847656 59.433594 169.515625 C 62.503906 154.140625 64.960938 138.96875 78.21875 128.667969 C 79.847656 127.40625 78.171875 125.019531 76.414062 126.054688 Z M 76.414062 126.054688 " fill-opacity="1" fill-rule="nonzero"/><path fill="#1a1a1a" d="M 55.667969 146.6875 C 56.738281 145.648438 55.300781 143.898438 54.0625 144.671875 C 46.792969 149.199219 43.050781 155.796875 41.082031 163.96875 C 39.539062 170.359375 39.1875 179.789062 43.386719 185.195312 C 44.230469 186.285156 45.992188 185.984375 46.257812 184.5625 C 47.449219 178.179688 45.714844 171.5 46.65625 164.980469 C 47.660156 158.046875 50.628906 151.566406 55.667969 146.6875 Z M 55.667969 146.6875 " fill-opacity="1" fill-rule="nonzero"/><path fill="#1a1a1a" d="M 149.289062 170.5 C 142.894531 174.164062 136.277344 179.8125 132.671875 186.335938 C 132.265625 187.070312 132.925781 187.878906 133.726562 187.5625 C 140.6875 184.773438 144.949219 177.347656 150.902344 172.964844 C 152.4375 171.835938 150.933594 169.558594 149.289062 170.5 Z M 149.289062 170.5 " fill-opacity="1" fill-rule="nonzero"/><path fill="#1a1a1a" d="M 145.761719 180.011719 C 144.113281 181.628906 142.46875 183.238281 140.875 184.90625 C 139.257812 186.597656 137.46875 188.433594 136.8125 190.734375 C 136.640625 191.339844 137.246094 192.035156 137.878906 191.695312 C 139.96875 190.578125 141.449219 188.582031 143.007812 186.847656 C 144.535156 185.144531 146.140625 183.511719 147.738281 181.875 C 148.964844 180.613281 147.007812 178.796875 145.761719 180.011719 Z M 145.761719 180.011719 " fill-opacity="1" fill-rule="nonzero"/><path fill="#1a1a1a" d="M 150.820312 185.464844 C 149.082031 187.070312 147.3125 188.648438 145.625 190.308594 C 144.46875 191.449219 141.644531 193.496094 142.371094 195.429688 C 142.546875 195.90625 142.78125 195.910156 143.113281 196.207031 C 144.613281 197.546875 148.300781 192.921875 149.085938 192.121094 C 150.441406 190.746094 151.71875 189.28125 153.03125 187.859375 C 154.289062 186.503906 152.195312 184.195312 150.820312 185.464844 Z M 150.820312 185.464844 " fill-opacity="1" fill-rule="nonzero"/><path fill="#1a1a1a" d="M 151.515625 196.707031 C 150.136719 198.066406 148.726562 199.335938 148.207031 201.257812 C 147.882812 202.457031 149.480469 203.335938 150.324219 202.433594 C 151.480469 201.203125 152.511719 199.882812 153.703125 198.671875 C 155.042969 197.316406 152.851562 195.386719 151.515625 196.707031 Z M 151.515625 196.707031 " fill-opacity="1" fill-rule="nonzero"/><path fill="#1a1a1a" d="M 312.210938 143.59375 C 303.179688 139.789062 292.925781 137.378906 283.050781 137.726562 C 281.488281 137.78125 281.332031 140.046875 282.820312 140.40625 C 292.179688 142.691406 301.714844 145.164062 311.273438 146.417969 C 312.878906 146.628906 313.84375 144.28125 312.210938 143.59375 Z M 312.210938 143.59375 " fill-opacity="1" fill-rule="nonzero"/><path fill="#1a1a1a" d="M 307.253906 151.816406 C 305.398438 149.371094 302.160156 149.242188 299.339844 148.714844 C 295.765625 148.042969 291.4375 147.480469 287.851562 148.039062 C 286.898438 148.183594 286.695312 149.691406 287.558594 150.097656 C 290.539062 151.503906 294.066406 151.84375 297.273438 152.554688 C 300.351562 153.242188 303.953125 154.589844 306.988281 153.351562 C 307.613281 153.089844 307.605469 152.28125 307.253906 151.816406 Z M 307.253906 151.816406 " fill-opacity="1" fill-rule="nonzero"/><path fill="#1a1a1a" d="M 302.203125 160.242188 C 300.75 158.625 298.671875 158.597656 296.585938 158.355469 C 293.585938 158.003906 290.5625 157.945312 287.550781 157.582031 C 285.488281 157.332031 284.972656 160.375 287.03125 160.769531 C 289.726562 161.296875 292.445312 161.707031 295.183594 161.964844 C 297.363281 162.171875 299.96875 162.851562 301.921875 161.679688 C 302.429688 161.375 302.625 160.707031 302.203125 160.242188 Z M 302.203125 160.242188 " fill-opacity="1" fill-rule="nonzero"/><path fill="#1a1a1a" d="M 295.175781 169.433594 C 293.316406 166.964844 289.726562 166.269531 286.875 167.15625 C 284.320312 167.949219 285.074219 172.054688 287.707031 171.289062 C 289.242188 170.839844 290.929688 170.921875 291.9375 172.304688 C 293.574219 174.554688 296.84375 171.65625 295.175781 169.433594 Z M 295.175781 169.433594 " fill-opacity="1" fill-rule="nonzero"/><path fill="#1a1a1a" d="M 289.136719 178.71875 C 288.003906 178.191406 286.597656 178.296875 285.378906 178.332031 C 283.359375 178.390625 283.371094 181.8125 285.390625 181.882812 C 286.164062 181.910156 287.164062 181.828125 287.828125 182.292969 C 288.734375 182.917969 289.980469 183.582031 290.867188 182.515625 C 292.050781 181.101562 290.441406 179.320312 289.136719 178.71875 Z M 289.136719 178.71875 " fill-opacity="1" fill-rule="nonzero"/><path fill="#1a1a1a" d="M 341.078125 295.808594 C 334.242188 300.996094 328.214844 306.957031 322.113281 312.972656 C 321.785156 313.292969 322.308594 313.839844 322.660156 313.558594 C 329.359375 308.289062 335.488281 302.335938 342.253906 297.15625 C 343.171875 296.445312 341.984375 295.117188 341.078125 295.808594 Z M 341.078125 295.808594 " fill-opacity="1" fill-rule="nonzero"/><path fill="#1a1a1a" d="M 348.960938 298.863281 C 340.1875 306.652344 330.667969 314 322.761719 322.675781 C 322.226562 323.261719 322.761719 324.484375 323.59375 323.980469 C 333.777344 317.777344 342.335938 308.816406 351.097656 300.804688 C 352.480469 299.539062 350.332031 297.648438 348.960938 298.863281 Z M 348.960938 298.863281 " fill-opacity="1" fill-rule="nonzero"/><path fill="#1a1a1a" d="M 365.191406 299.050781 C 360.429688 303.453125 355.441406 307.613281 350.472656 311.785156 C 344.835938 316.519531 338.453125 320.90625 334.117188 326.929688 C 333.527344 327.742188 334.59375 328.847656 335.441406 328.355469 C 341.152344 325.070312 346.050781 320.382812 351.066406 316.140625 C 356.789062 311.304688 362.132812 306.230469 366.835938 300.386719 C 367.609375 299.417969 366.050781 298.261719 365.191406 299.050781 Z M 365.191406 299.050781 " fill-opacity="1" fill-rule="nonzero"/><path fill="#1a1a1a" d="M 357.445312 316.070312 C 354.445312 318.761719 350.941406 320.835938 348.777344 324.300781 C 347.988281 325.558594 349.660156 326.8125 350.792969 326.144531 C 354.148438 324.140625 356.996094 321.324219 359.660156 318.46875 C 360.921875 317.117188 358.839844 314.820312 357.445312 316.070312 Z M 357.445312 316.070312 " fill-opacity="1" fill-rule="nonzero"/><path fill="#1a1a1a" d="M 242.117188 271.359375 C 230.683594 280.199219 217.492188 290.425781 209.550781 302.679688 C 208.960938 303.585938 210.132812 304.484375 210.941406 303.871094 C 216.601562 299.558594 221.324219 293.953125 226.332031 288.910156 C 231.871094 283.324219 237.707031 278.039062 243.78125 273.042969 C 244.976562 272.0625 243.300781 270.445312 242.117188 271.359375 Z M 242.117188 271.359375 " fill-opacity="1" fill-rule="nonzero"/><path fill="#1a1a1a" d="M 251.03125 277.902344 C 238.535156 289.273438 222.984375 301.199219 214.519531 316.054688 C 213.972656 317.011719 215.152344 318.042969 216.007812 317.300781 C 222.917969 311.320312 228.75 304.023438 235.242188 297.582031 C 241.21875 291.644531 247.203125 285.734375 253.273438 279.898438 C 254.6875 278.542969 252.4375 276.628906 251.03125 277.902344 Z M 251.03125 277.902344 " fill-opacity="1" fill-rule="nonzero"/><path fill="#1a1a1a" d="M 254.382812 291.300781 C 244.9375 300.289062 235.929688 309.941406 227.960938 320.257812 C 227.292969 321.125 228.566406 322.070312 229.34375 321.453125 C 239.617188 313.339844 247.738281 302.835938 256.621094 293.289062 C 257.960938 291.855469 255.757812 289.992188 254.382812 291.300781 Z M 254.382812 291.300781 " fill-opacity="1" fill-rule="nonzero"/><path fill="#1a1a1a" d="M 256.082031 307.222656 C 253.597656 309.570312 251.121094 311.917969 248.628906 314.257812 C 246.285156 316.464844 242.789062 318.992188 241.804688 322.140625 C 241.546875 322.984375 242.429688 323.832031 243.265625 323.582031 C 246.15625 322.695312 248.335938 319.636719 250.402344 317.523438 C 253.066406 314.796875 255.648438 311.96875 258.273438 309.191406 C 259.589844 307.785156 257.4375 305.9375 256.082031 307.222656 Z M 256.082031 307.222656 " fill-opacity="1" fill-rule="nonzero"/><path fill="#1a1a1a" d="M 331.714844 200.402344 C 327.5625 202.878906 324.5 206.867188 321.214844 210.335938 C 317.160156 214.617188 312.949219 219.09375 309.71875 224.035156 C 309.511719 224.351562 309.835938 224.777344 310.183594 224.546875 C 314.730469 221.519531 318.433594 217.523438 322.25 213.65625 C 325.972656 209.886719 330.160156 205.800781 332.460938 200.984375 C 332.6875 200.511719 332.097656 200.175781 331.714844 200.402344 Z M 331.714844 200.402344 " fill-opacity="1" fill-rule="nonzero"/><path fill="#1a1a1a" d="M 339.824219 199.984375 C 332.902344 204.953125 326.980469 211.089844 321.035156 217.171875 C 316.007812 222.324219 309.984375 228.242188 307.394531 235.09375 C 307.234375 235.53125 307.742188 235.992188 308.140625 235.679688 C 313.886719 231.136719 318.589844 224.652344 323.628906 219.308594 C 329.394531 213.191406 335.699219 207.628906 340.636719 200.792969 C 341.023438 200.257812 340.355469 199.601562 339.824219 199.984375 Z M 339.824219 199.984375 " fill-opacity="1" fill-rule="nonzero"/><path fill="#1a1a1a" d="M 347.605469 201.164062 C 344.300781 201.8125 341.730469 204.394531 339.316406 206.585938 C 336.953125 208.714844 332.988281 212.007812 332.773438 215.339844 C 332.730469 216 333.394531 216.492188 334.015625 216.351562 C 337.023438 215.675781 339.226562 212.035156 341.226562 209.871094 C 343.5625 207.367188 346.53125 204.816406 347.949219 201.652344 C 348.046875 201.433594 347.871094 201.109375 347.605469 201.164062 Z M 347.605469 201.164062 " fill-opacity="1" fill-rule="nonzero"/><path fill="#1a1a1a" d="M 353.074219 205.007812 C 352.496094 205.125 351.917969 205.25 351.335938 205.375 C 351.367188 205.644531 351.347656 205.894531 351.28125 206.128906 C 351.121094 204.949219 350.703125 204.660156 350.007812 205.375 C 349.683594 205.648438 349.359375 205.925781 349.03125 206.195312 C 348.214844 206.882812 347.457031 207.636719 346.691406 208.378906 C 345.289062 209.714844 343.691406 211 342.902344 212.8125 C 342.351562 214.078125 343.734375 215.84375 345.113281 215.101562 C 347.101562 214.039062 348.527344 212.140625 350.074219 210.527344 C 351.335938 209.210938 353.917969 207.023438 353.074219 205.007812 Z M 353.074219 205.007812 " fill-opacity="1" fill-rule="nonzero"/><path fill="#1a1a1a" d="M 355.304688 207.40625 C 352.136719 210.136719 347.914062 212.714844 346.769531 217.03125 C 346.414062 218.367188 348.199219 219.410156 349.238281 218.609375 C 350.632812 217.546875 351.605469 216.070312 352.675781 214.699219 C 354.109375 212.855469 355.503906 210.886719 357.015625 209.117188 C 358.035156 207.929688 356.488281 206.386719 355.304688 207.40625 Z M 355.304688 207.40625 " fill-opacity="1" fill-rule="nonzero"/><path fill="#1a1a1a" d="M 358.980469 212.8125 C 355.964844 214.789062 352.828125 217.335938 351.179688 220.636719 C 350.441406 222.125 352.605469 223.660156 353.652344 222.292969 C 355.757812 219.539062 358.15625 216.957031 360.082031 214.070312 C 360.519531 213.40625 359.726562 212.320312 358.980469 212.8125 Z M 358.980469 212.8125 " fill-opacity="1" fill-rule="nonzero"/><path fill="#1a1a1a" d="M 359.84375 216.957031 C 358.679688 218.539062 357.167969 219.90625 355.839844 221.355469 C 354.445312 222.863281 352.988281 224.289062 352.988281 226.453125 C 353 227.738281 354.597656 228.21875 355.527344 227.621094 C 357.101562 226.613281 358.128906 224.675781 359.316406 223.246094 C 360.613281 221.679688 361.503906 220.128906 362.046875 218.15625 C 362.367188 216.984375 360.621094 215.898438 359.84375 216.957031 Z M 359.84375 216.957031 " fill-opacity="1" fill-rule="nonzero"/><path fill="#1a1a1a" d="M 363.917969 223.4375 C 361.136719 225.226562 359.03125 227.867188 356.730469 230.21875 C 354.753906 232.246094 352.652344 234.515625 351.574219 237.167969 C 351.347656 237.742188 351.996094 238.347656 352.550781 238.070312 C 355.164062 236.785156 357.476562 234.511719 359.46875 232.402344 C 361.71875 230.03125 364.097656 227.679688 365.210938 224.539062 C 365.460938 223.832031 364.597656 222.992188 363.917969 223.4375 Z M 363.917969 223.4375 " fill-opacity="1" fill-rule="nonzero"/><path fill="#1a1a1a" d="M 363.953125 232.726562 C 358.863281 236.789062 354.25 241.292969 349.75 245.988281 C 345.351562 250.570312 340.4375 254.808594 336.566406 259.847656 C 336.265625 260.242188 336.691406 260.878906 337.171875 260.652344 C 341.984375 258.371094 345.601562 254.535156 349.265625 250.742188 C 354.609375 245.210938 359.671875 239.40625 365.417969 234.285156 C 366.464844 233.355469 365.019531 231.882812 363.953125 232.726562 Z M 363.953125 232.726562 " fill-opacity="1" fill-rule="nonzero"/><path fill="#1a1a1a" d="M 364.40625 237.851562 C 361.363281 238.851562 359.273438 241.382812 357.101562 243.617188 C 353.945312 246.863281 350.964844 250.59375 348.875 254.621094 C 348.589844 255.183594 349.335938 255.5625 349.765625 255.292969 C 353.023438 253.265625 355.742188 250.324219 358.289062 247.484375 C 360.738281 244.757812 363.753906 242.066406 365.335938 238.71875 C 365.625 238.121094 364.914062 237.683594 364.40625 237.851562 Z M 364.40625 237.851562 " fill-opacity="1" fill-rule="nonzero"/><path fill="#1a1a1a" d="M 340.253906 248.085938 C 338.109375 249.621094 336.09375 251.339844 334.101562 253.066406 C 332.632812 254.347656 330.089844 255.832031 329.492188 257.777344 C 329.34375 258.257812 329.652344 258.761719 330.167969 258.808594 C 332.378906 259.019531 334.222656 256.875 335.722656 255.496094 C 337.761719 253.609375 339.488281 251.40625 341.519531 249.5 C 342.445312 248.644531 341.226562 247.382812 340.253906 248.085938 Z M 340.253906 248.085938 " fill-opacity="1" fill-rule="nonzero"/><path fill="#1a1a1a" d="M 333.722656 246.734375 C 331.5625 248.644531 329.339844 250.492188 327.078125 252.277344 C 326.152344 253.003906 322.578125 254.933594 324.144531 256.609375 C 325.664062 258.242188 328.132812 256.1875 329.414062 255.25 C 331.910156 253.410156 333.929688 251.039062 335.96875 248.722656 C 337.285156 247.226562 335.132812 245.488281 333.722656 246.734375 Z M 333.722656 246.734375 " fill-opacity="1" fill-rule="nonzero"/><path fill="#1a1a1a" d="M 328.78125 243.359375 C 325.015625 245.558594 321.445312 248.601562 318.042969 251.332031 C 316.75 252.378906 317.523438 255.054688 319.386719 254.566406 C 324.128906 253.347656 327.417969 248.988281 330.539062 245.46875 C 331.585938 244.28125 330.136719 242.558594 328.78125 243.359375 Z M 328.78125 243.359375 " fill-opacity="1" fill-rule="nonzero"/><path fill="#1a1a1a" d="M 321.410156 240.59375 C 318.53125 242.152344 316.046875 244.238281 313.3125 246.015625 C 311.414062 247.25 313.550781 250.140625 315.40625 248.835938 C 318.011719 247 320.179688 244.691406 322.707031 242.773438 C 323.992188 241.800781 322.882812 239.796875 321.410156 240.59375 Z M 321.410156 240.59375 " fill-opacity="1" fill-rule="nonzero"/><path fill="#1a1a1a" d="M 316.660156 236.203125 C 314.328125 237.878906 311.605469 239.421875 309.625 241.507812 C 308.546875 242.644531 309.859375 244.347656 311.238281 243.925781 C 314.125 243.050781 316.402344 240.410156 318.507812 238.386719 C 319.695312 237.246094 317.980469 235.257812 316.660156 236.203125 Z M 316.660156 236.203125 " fill-opacity="1" fill-rule="nonzero"/><path fill="#1a1a1a" d="M 316.597656 230.808594 C 315.464844 231.433594 314.371094 232.074219 313.355469 232.878906 C 312.28125 233.738281 310.949219 234.65625 310.636719 236.089844 C 310.519531 236.652344 310.902344 237.28125 311.554688 237.140625 C 312.773438 236.882812 313.625 236 314.546875 235.203125 C 315.609375 234.277344 316.695312 233.371094 317.792969 232.488281 C 318.722656 231.738281 317.613281 230.25 316.597656 230.808594 Z M 316.597656 230.808594 " fill-opacity="1" fill-rule="nonzero"/><path fill="#1a1a1a" d="M 296.601562 368.992188 C 292.046875 372.109375 288.359375 375.558594 284.75 379.734375 C 281.792969 383.167969 277.136719 386.820312 275.582031 391.125 C 275.421875 391.570312 275.820312 392.1875 276.339844 392.042969 C 280.957031 390.800781 284.253906 385.308594 287.128906 381.78125 C 290.425781 377.730469 293.519531 373.335938 297.148438 369.574219 C 297.472656 369.238281 296.964844 368.742188 296.601562 368.992188 Z M 296.601562 368.992188 " fill-opacity="1" fill-rule="nonzero"/><path fill="#1a1a1a" d="M 304.101562 368.328125 C 298.414062 372.207031 293.972656 377.53125 289.464844 382.683594 C 285.582031 387.117188 280.195312 391.726562 277.910156 397.214844 C 277.753906 397.585938 278.152344 398.050781 278.542969 397.863281 C 283.957031 395.285156 287.828125 389.140625 291.597656 384.621094 C 295.949219 379.402344 300.625 374.378906 304.5625 368.828125 C 304.785156 368.519531 304.4375 368.09375 304.101562 368.328125 Z M 304.101562 368.328125 " fill-opacity="1" fill-rule="nonzero"/><path fill="#1a1a1a" d="M 310.777344 368.359375 C 308.390625 369.132812 306.46875 371.445312 304.6875 373.140625 C 302.746094 374.996094 299.480469 377.964844 299.835938 380.886719 C 299.902344 381.40625 300.476562 381.675781 300.9375 381.601562 C 303.445312 381.195312 305.085938 378.136719 306.625 376.335938 C 308.359375 374.304688 310.851562 371.769531 311.660156 369.203125 C 311.84375 368.625 311.324219 368.179688 310.777344 368.359375 Z M 310.777344 368.359375 " fill-opacity="1" fill-rule="nonzero"/><path fill="#1a1a1a" d="M 315.214844 371.34375 C 313.59375 372.929688 311.851562 374.425781 310.378906 376.15625 C 309.242188 377.484375 307.363281 379.253906 307.824219 381.179688 C 307.914062 381.578125 308.269531 381.855469 308.691406 381.789062 C 310.519531 381.492188 311.597656 379.492188 312.71875 378.183594 C 314.230469 376.445312 315.613281 374.578125 317.019531 372.746094 C 317.820312 371.691406 316.117188 370.449219 315.214844 371.34375 Z M 315.214844 371.34375 " fill-opacity="1" fill-rule="nonzero"/><path fill="#1a1a1a" d="M 318.886719 374.621094 C 316.230469 376.730469 313.390625 379.429688 312.394531 382.777344 C 311.984375 384.136719 313.933594 385.042969 314.816406 384.023438 C 316.941406 381.550781 318.425781 378.488281 320.429688 375.894531 C 321.164062 374.945312 319.726562 373.953125 318.886719 374.621094 Z M 318.886719 374.621094 " fill-opacity="1" fill-rule="nonzero"/><path fill="#1a1a1a" d="M 322.546875 378.730469 C 320.441406 381.207031 317.566406 383.4375 316.554688 386.632812 C 316.039062 388.242188 318.070312 389.941406 319.269531 388.355469 C 321.199219 385.804688 323.25 383.148438 324.621094 380.25 C 325.21875 378.980469 323.535156 377.5625 322.546875 378.730469 Z M 322.546875 378.730469 " fill-opacity="1" fill-rule="nonzero"/><path fill="#1a1a1a" d="M 326.273438 382.390625 C 324.628906 383.679688 323.261719 385.59375 321.929688 387.214844 C 320.25 389.265625 318.460938 391.058594 317.019531 393.289062 C 316.054688 394.765625 317.675781 396.976562 319.277344 395.710938 C 322.914062 392.824219 327.78125 388.117188 328.128906 383.195312 C 328.195312 382.15625 326.953125 381.855469 326.273438 382.390625 Z M 326.273438 382.390625 " fill-opacity="1" fill-rule="nonzero"/><path fill="#1a1a1a" d="M 328.152344 389.214844 C 321.402344 395.707031 315.332031 403.816406 310.054688 411.539062 C 309.535156 412.292969 310.496094 413.085938 311.191406 412.585938 C 318.855469 407.015625 324.015625 397.945312 329.636719 390.464844 C 330.304688 389.566406 328.933594 388.453125 328.152344 389.214844 Z M 328.152344 389.214844 " fill-opacity="1" fill-rule="nonzero"/><path fill="#1a1a1a" d="M 289.839844 391.007812 C 285.636719 393.359375 282.046875 397.785156 280.738281 402.445312 C 280.480469 403.371094 281.1875 403.996094 281.964844 404.097656 C 281.933594 404.117188 281.898438 404.132812 281.867188 404.148438 C 282.289062 404.222656 282.699219 404.105469 283.03125 403.855469 C 283.054688 403.835938 283.09375 403.8125 283.121094 403.785156 C 283.25 403.671875 283.363281 403.542969 283.445312 403.378906 C 285.523438 399.257812 288.671875 395.753906 290.484375 391.535156 C 290.667969 391.105469 290.183594 390.808594 289.839844 391.007812 Z M 289.839844 391.007812 " fill-opacity="1" fill-rule="nonzero"/><path fill="#1a1a1a" d="M 292.957031 394.921875 C 291.089844 396.09375 289.488281 397.855469 288.058594 399.515625 C 286.5 401.3125 284.925781 403.300781 284.558594 405.710938 C 284.480469 406.191406 284.621094 406.84375 285.054688 407.140625 C 285.324219 407.320312 285.480469 407.429688 285.789062 407.492188 C 286.277344 407.601562 286.910156 407.402344 287.21875 406.996094 C 288.644531 405.125 289.71875 403.003906 291.105469 401.101562 C 292.246094 399.546875 293.5625 397.785156 294.019531 395.882812 C 294.15625 395.324219 293.597656 394.515625 292.957031 394.921875 Z M 292.957031 394.921875 " fill-opacity="1" fill-rule="nonzero"/><path fill="#1a1a1a" d="M 295.464844 400.730469 C 292.90625 403.160156 290.289062 406.050781 289.148438 409.433594 C 288.714844 410.703125 290.453125 411.425781 291.300781 410.617188 C 293.730469 408.304688 295.230469 405.121094 297.492188 402.617188 C 298.703125 401.277344 296.75 399.511719 295.464844 400.730469 Z M 295.464844 400.730469 " fill-opacity="1" fill-rule="nonzero"/><path fill="#1a1a1a" d="M 301.332031 403.671875 C 300.195312 404.878906 299.015625 406.0625 298.007812 407.375 C 297.09375 408.558594 295.789062 410.097656 296.414062 411.65625 C 296.566406 412.027344 296.992188 412.171875 297.363281 412.125 C 298.761719 411.945312 299.449219 410.375 300.199219 409.335938 C 301.207031 407.9375 302.171875 406.5 303.183594 405.105469 C 303.988281 404.019531 302.234375 402.722656 301.332031 403.671875 Z M 301.332031 403.671875 " fill-opacity="1" fill-rule="nonzero"/><path fill="#1a1a1a" d="M 306.695312 404.222656 C 305.851562 405.34375 304.90625 406.386719 303.980469 407.4375 C 303.207031 408.320312 302.046875 409.648438 302.808594 410.902344 C 303.898438 412.675781 306.09375 410.699219 306.917969 409.6875 C 307.84375 408.535156 308.574219 407.222656 309.21875 405.894531 C 309.964844 404.375 307.753906 402.820312 306.695312 404.222656 Z M 306.695312 404.222656 " fill-opacity="1" fill-rule="nonzero"/></g></g></g></svg>