<svg xmlns="http://www.w3.org/2000/svg" width="1080" viewBox="0 0 810 810" height="1080" version="1.0"><defs><clipPath id="a"><path d="M334.998 356.004h401.778v178.29H334.998Zm0 0"/></clipPath><clipPath id="b"><path d="M649.998 356.004h86.778V513h-86.778Zm0 0"/></clipPath><clipPath id="c"><path d="M408.006 493.002h181.998v41.274H408.006Zm0 0"/></clipPath><clipPath id="d"><path d="M334.998 275.526h401.778v169.47H334.998Zm0 0"/></clipPath><clipPath id="e"><path d="M73.026 356.004h401.976v178.29H73.026Zm0 0"/></clipPath><clipPath id="f"><path d="M73.026 361.998h254.97v172.278H73.026Zm0 0"/></clipPath><clipPath id="g"><path d="M73.026 356.004h.972V360h-.972Zm0 0"/></clipPath><clipPath id="h"><path d="M73.026 275.526h401.976v169.47H73.026Zm0 0"/></clipPath></defs><g clip-path="url(#a)"><path fill="#bdbcbc" d="M736.794 356.382H335.16c0 59.688 25.002 177.876 201.222 177.876 192.636 0 200.412-119.214 200.412-177.876"/></g><path fill="#a72b1b" d="M721.062 356.382H350.91c0 55.008 23.058 163.944 185.454 163.944 177.552 0 184.716-109.872 184.716-163.944"/><g clip-path="url(#b)"><path fill="#dcdbdb" d="M650.754 512.406a113.4 113.4 0 0 0 30.528-37.242c24.246-23.778 33.786-53.46 37.494-79.992 11.196-10.332 17.604-21.78 18.018-33.822-.396 43.65-7.092 114.984-82.278 150.84l-3.744.198m86.04-153.018a36 36 0 0 0-.18-2.898l.18-.09z"/></g><path fill="#c95818" d="M681.264 475.164c10.332-20.034 11.772-36.81 11.772-36.81s-42.714 11.736-87.102 11.736c-16.326 0-32.886-1.602-47.628-5.94 71.532-3.33 131.742-22.482 160.47-48.978-3.708 26.514-13.248 56.196-37.494 79.992"/><g clip-path="url(#c)"><path fill="#969494" d="M536.382 534.276c-56.934 0-98.082-12.348-127.692-31.05q7.128-4.5 13.266-9.486c27.036 16.11 64.008 26.586 114.39 26.586q11.952 0 22.914-.648a207 207 0 0 0 30.258 11.07 378 378 0 0 1-52.668 3.528z"/></g><path fill="#832114" d="M536.346 520.326c-50.382 0-87.354-10.476-114.39-26.586a130.86 130.86 0 0 0 39.96-55.008 378 378 0 0 0 10.332 1.584 133.2 133.2 0 0 0 22.95 33.246 203.4 203.4 0 0 0 64.062 46.116q-10.962.648-22.914.648"/><g clip-path="url(#d)"><path fill="#d3d2d2" d="M736.794 360.108c0 46.692-89.91 84.564-200.808 84.564S335.16 406.818 335.16 360.108s89.91-84.564 200.826-84.564 200.808 37.854 200.808 84.564"/></g><path fill="#989696" d="M716.328 356.382c0 37.332-80.748 67.608-180.36 67.608s-180.36-30.276-180.36-67.608 80.766-67.59 180.36-67.59c99.612 0 180.36 30.258 180.36 67.59"/><path fill="#a72b1b" d="M711 372.726c-19.476 29.448-90.486 51.264-175.014 51.264-82.818 0-152.586-20.934-173.79-49.428 21.276-28.512 91.638-49.482 175.122-49.482 81.702 0 150.786 20.034 173.664 47.646"/><path fill="#832114" d="M494.982 422.226a414 414 0 0 1-26.784-3.186 180 180 0 0 0 1.512-6.57q2.196 1.134 4.446 2.16a162 162 0 0 0 20.826 7.596"/><path fill="#c95818" d="M539.622 351.846c-3.762 0-3.762-5.832 0-5.832s3.762 5.832 0 5.832m33.48 11.646c-3.204 0-3.204-4.968 0-4.968s3.204 4.968 0 4.968m-21.654 35.334a3.6 3.6 0 0 1-1.08-.144h-.018a4.14 4.14 0 0 1-3.528-2.358l-.162-.378a3.6 3.6 0 0 1-.324-1.494q0-.756.324-1.494l.162-.378c.684-1.332 1.98-2.376 3.51-2.376h.018a3.6 3.6 0 0 1 1.044-.126l.306.018h.198l.252-.018c1.566 0 2.898 1.062 3.6 2.448l.18.396a3.6 3.6 0 0 1 .306 1.53 3.6 3.6 0 0 1-.306 1.53l-.18.396c-.684 1.368-2.034 2.43-3.582 2.43l-.27-.018-.198.018h-.27m68.058-17.01a3.06 3.06 0 0 1-3.168-3.132c-.09-2.07 1.224-4.158 3.42-4.158l.396.018c2.826.306 3.888 3.276 2.466 5.13a3.24 3.24 0 0 1-3.114 2.142m20.556-18.576c-4.05 0-4.05-6.264 0-6.264s4.05 6.264 0 6.264m20.448 19.89c-2.142 0-2.142-3.312 0-3.312 2.124 0 2.124 3.312 0 3.312m15.804-7.866c-3.978 0-3.978-6.192 0-6.192 3.996 0 3.996 6.192 0 6.192M495 380.16c-4.338 0-4.338-6.714 0-6.714s4.338 6.714 0 6.714m-11.16-30.906c-5.238 0-5.238-8.1 0-8.1s5.238 8.1 0 8.1m-5.58 43.38c-4.824 0-4.824-7.488 0-7.488 4.842 0 4.842 7.488 0 7.488m58.572-11.376c-5.742 0-5.742-8.892 0-8.892s5.742 8.892 0 8.892m47.43 11.61c-3.924 0-3.924-6.102 0-6.102 3.942 0 3.942 6.102 0 6.102m-58.572 10.26c-3.996 0-3.996-6.192 0-6.192 3.978 0 3.978 6.192 0 6.192"/><g clip-path="url(#e)"><path fill="#bdbcbc" d="M474.642 356.382H73.026c0 59.688 25.002 177.876 201.204 177.876 192.636 0 200.412-119.214 200.412-177.876"/></g><path fill="#f2c378" d="M458.91 356.382H88.74c0 55.008 23.058 163.944 185.454 163.944 177.534 0 184.698-109.872 184.698-163.944"/><path fill="#dcdbdb" d="M388.602 512.406a113.4 113.4 0 0 0 30.51-37.242c24.246-23.796 33.786-53.46 37.476-79.974 11.214-10.332 17.622-21.78 18.036-33.84-.396 43.632-7.074 114.984-82.278 150.858q-1.872.126-3.744.198m86.04-153.036a36 36 0 0 0-.18-2.898l.18-.09z"/><path fill="#f8ddac" d="M419.112 475.164c10.332-20.034 11.754-36.792 11.754-36.792s-42.714 11.718-87.102 11.718c-16.326 0-32.886-1.602-47.628-5.922 71.532-3.33 131.742-22.482 160.434-48.978-3.708 26.532-13.23 56.178-37.476 79.974"/><g clip-path="url(#f)"><path fill="#aeaca4" d="M274.23 534.276c-170.208 0-199.332-110.268-201.114-171.576.864 12.204 7.902 23.778 19.8 34.146 11.754 55.638 53.136 123.48 181.296 123.48q11.97 0 22.896-.648a205 205 0 0 0 30.258 11.07c-15.822 2.25-33.3 3.51-52.668 3.528z"/></g><path fill="#dcb168" d="M274.194 520.326c-128.16 0-169.56-67.842-181.296-123.48 23.382 20.394 65.628 36.234 117.198 43.488a133.2 133.2 0 0 0 22.932 33.246 205.2 205.2 0 0 0 64.062 46.098q-10.944.648-22.896.648"/><g clip-path="url(#g)"><path fill="#aeaca4" d="m73.026 359.028-.018-2.628h.18a36 36 0 0 0-.18 2.628"/></g><g clip-path="url(#h)"><path fill="#d3d2d2" d="M474.642 360.108c0 46.71-89.91 84.564-200.826 84.564-110.898 0-200.808-37.854-200.808-84.564 0-46.692 89.892-84.564 200.808-84.564s200.826 37.854 200.826 84.564"/></g><path fill="#989696" d="M454.194 356.382c0 37.332-80.748 67.608-180.36 67.608s-180.36-30.276-180.36-67.608 80.748-67.608 180.36-67.608 180.36 30.276 180.36 67.608"/><path fill="#f2c378" d="M448.848 372.726c-19.476 29.448-90.468 51.282-175.014 51.282-82.818 0-152.586-20.934-173.772-49.446 21.258-28.512 91.638-49.464 175.122-49.464 81.684 0 150.786 20.034 173.664 47.646"/><path fill="#dcb168" d="M232.83 422.226c-64.17-5.598-115.2-24.012-132.768-47.664 12.924-17.316 44.046-31.878 85.194-40.608a63 63 0 0 0-9.522 28.638c-1.764 24.75 14.922 42.426 36.27 52.038 6.606 2.97 13.59 5.454 20.826 7.596"/><path fill="#f8ddac" d="M277.488 351.846c-3.762 0-3.762-5.832 0-5.832s3.762 5.832 0 5.832m33.462 11.646c-3.204 0-3.204-4.95 0-4.95s3.204 4.95 0 4.95m-21.708 35.334a3.6 3.6 0 0 1-1.026-.144h-.036c-1.512 0-2.826-1.026-3.492-2.358l-.18-.378a3.6 3.6 0 0 1-.288-1.494 3.6 3.6 0 0 1 .288-1.494l.18-.36a4.14 4.14 0 0 1 3.528-2.376h.018a5.4 5.4 0 0 1 1.062-.126l.288.018h.45c1.566 0 2.916 1.08 3.6 2.448l.18.378a3.6 3.6 0 0 1 .306 1.53 3.6 3.6 0 0 1-.306 1.53l-.18.378c-.684 1.368-2.034 2.448-3.6 2.448l-.252-.018h-.198l-.324.018m68.076-17.01a3.06 3.06 0 0 1-3.168-3.132c-.09-2.07 1.206-4.158 3.402-4.158l.396.018c2.826.306 3.888 3.258 2.466 5.13a3.24 3.24 0 0 1-3.114 2.142m20.574-18.594c-4.05 0-4.05-6.282 0-6.282s4.05 6.282 0 6.282m20.448 19.89c-2.142 0-2.142-3.312 0-3.312 2.124 0 2.124 3.312 0 3.312m15.804-7.866c-3.978 0-3.978-6.192 0-6.192 3.996 0 3.996 6.192 0 6.192m-181.296 4.914c-4.338 0-4.338-6.714 0-6.714s4.338 6.714 0 6.714m-11.142-30.906c-5.22 0-5.22-8.1 0-8.1s5.22 8.1 0 8.1m-5.58 43.38c-4.824 0-4.824-7.488 0-7.488s4.824 7.488 0 7.488m58.554-11.376c-5.724 0-5.724-8.892 0-8.892 5.742 0 5.742 8.892 0 8.892m47.43 11.61c-3.924 0-3.924-6.102 0-6.102 3.942 0 3.942 6.102 0 6.102m-58.572 10.26c-3.978 0-3.978-6.192 0-6.192 3.996 0 3.996 6.192 0 6.192"/></svg>
