<?xml version="1.0" standalone="no"?>
<!DOCTYPE svg PUBLIC "-//W3C//DTD SVG 20010904//EN"
 "http://www.w3.org/TR/2001/REC-SVG-20010904/DTD/svg10.dtd">
<svg version="1.0" xmlns="http://www.w3.org/2000/svg"
 width="700.000000pt" height="700.000000pt" viewBox="0 0 700.000000 700.000000"
 preserveAspectRatio="xMidYMid meet">
<metadata>
Created by potrace 1.14, written by Peter Selinger 2001-2017
</metadata>
<g transform="translate(0.000000,700.000000) scale(0.100000,-0.100000)"
fill="#000000" stroke="none">
<path d="M3215 6345 c-364 -40 -659 -126 -990 -290 -687 -340 -1206 -942
-1445 -1679 -31 -95 -90 -319 -90 -343 0 -6 26 -21 57 -33 135 -50 258 -167
315 -298 31 -74 33 -83 33 -202 0 -119 -2 -129 -33 -201 -58 -135 -173 -248
-298 -294 -78 -29 -78 -29 -54 -131 177 -759 630 -1396 1283 -1802 361 -224
774 -367 1193 -412 177 -19 628 -8 779 19 753 137 1377 516 1820 1105 244 326
400 663 504 1085 24 98 25 111 8 111 -25 0 -153 68 -204 108 -63 51 -129 144
-162 232 -32 86 -36 255 -7 340 54 161 173 285 327 341 33 12 59 28 59 35 0
24 -69 282 -97 363 -249 729 -745 1306 -1416 1647 -300 153 -605 247 -937 289
-177 23 -485 27 -645 10z m675 -70 c631 -98 1152 -358 1591 -795 350 -349 607
-797 733 -1285 14 -55 26 -107 26 -116 0 -11 -19 -26 -55 -43 -149 -68 -270
-210 -319 -375 -22 -73 -22 -249 0 -322 49 -166 170 -307 322 -377 l59 -27
-29 -115 c-268 -1071 -1143 -1885 -2235 -2079 -270 -48 -620 -53 -897 -11
-813 122 -1531 593 -1964 1290 -159 256 -303 605 -355 863 l-13 62 78 38 c304
148 415 523 241 816 -52 87 -145 172 -241 218 l-78 38 9 45 c19 97 80 299 129
423 305 771 930 1368 1710 1630 192 65 425 116 623 136 134 14 540 5 665 -14z"/>
<path d="M3245 6111 c-156 -15 -170 -18 -173 -36 -5 -40 9 -45 96 -37 45 4 82
5 82 1 0 -5 -38 -92 -85 -195 -47 -103 -83 -189 -80 -192 5 -5 353 23 428 34
l38 6 -27 46 c-44 77 -41 77 -119 27 -38 -24 -71 -42 -73 -40 -2 2 36 88 83
192 48 103 89 194 92 201 7 16 -40 14 -262 -7z"/>
<path d="M3690 6103 c0 -10 -9 -99 -20 -198 -28 -261 -38 -232 75 -240 53 -4
98 -6 100 -3 4 4 45 386 45 419 0 13 -12 19 -47 23 -27 3 -72 8 -100 12 -47 5
-53 4 -53 -13z"/>
<path d="M4162 6006 c-205 -67 -210 -329 -8 -424 127 -60 250 -47 328 35 58
61 74 161 39 238 -22 49 -89 111 -147 136 -58 26 -157 33 -212 15z m178 -169
c-12 -75 -58 -172 -100 -212 l-32 -30 4 95 c3 78 8 106 31 155 16 33 42 75 60
93 l32 33 8 -36 c4 -21 3 -65 -3 -98z"/>
<path d="M2571 5953 l-103 -35 67 -68 68 -68 -30 -154 c-17 -84 -29 -154 -28
-156 2 -2 18 3 38 11 30 13 35 20 41 61 l7 47 49 -36 49 -36 11 43 c19 75 18
74 54 39 l34 -33 99 32 c54 18 102 35 107 38 10 5 -334 352 -349 351 -5 0 -57
-17 -114 -36z m156 -290 c2 -6 -17 -18 -42 -27 l-47 -15 7 42 c4 23 9 46 12
50 5 9 65 -34 70 -50z"/>
<path d="M2083 5706 c-95 -61 -178 -117 -184 -123 -8 -8 1 -30 37 -85 l48 -73
12 78 c7 43 14 83 16 89 2 5 50 -62 107 -151 56 -88 106 -163 110 -165 4 -3
38 16 76 40 39 25 76 49 83 53 10 6 -14 50 -92 171 -58 91 -103 166 -101 168
2 2 38 -6 81 -17 42 -12 78 -20 79 -19 4 4 -89 148 -95 147 -3 0 -83 -51 -177
-113z"/>
<path d="M4667 5636 c-64 -101 -117 -189 -117 -194 0 -11 31 -32 47 -32 5 0
28 32 52 70 24 39 47 70 50 70 3 0 46 -77 95 -172 82 -157 90 -170 103 -152 8
10 64 97 125 193 87 137 108 175 97 182 -44 30 -43 30 -93 -48 -42 -66 -50
-74 -61 -60 -6 9 -47 86 -91 171 -43 86 -82 156 -85 156 -3 0 -58 -83 -122
-184z"/>
<path d="M3244 5499 c-224 -26 -499 -116 -709 -232 -188 -104 -329 -212 -480
-368 -165 -171 -266 -316 -369 -531 -133 -276 -185 -498 -193 -818 -5 -194 2
-274 39 -482 11 -61 10 -69 -6 -87 -10 -11 -31 -23 -47 -26 -32 -7 -59 -39
-59 -70 0 -11 13 -45 30 -75 16 -30 29 -63 30 -73 0 -10 -18 -35 -39 -56 -73
-71 -111 -178 -86 -238 33 -78 162 -83 243 -8 36 32 37 36 33 92 -6 109 -5
131 9 147 12 15 20 3 74 -101 105 -202 223 -359 388 -519 164 -158 305 -258
504 -357 276 -138 570 -207 882 -207 264 0 485 39 718 125 631 235 1111 787
1258 1446 14 63 30 162 37 220 l12 107 71 4 c125 8 185 59 207 173 17 89 -31
265 -123 449 -168 335 -405 628 -734 908 -47 40 -113 97 -147 126 -261 225
-638 392 -1008 446 -115 17 -409 20 -535 5z m384 -49 c188 -13 492 -76 492
-102 0 -4 -4 -8 -10 -8 -5 0 -26 -15 -46 -32 -43 -38 -73 -98 -74 -145 0 -39
1 -39 -98 -14 -136 35 -244 44 -452 38 -212 -6 -304 -21 -473 -77 -123 -42
-335 -144 -405 -196 -2 -1 17 -22 41 -46 55 -55 70 -100 65 -188 -3 -58 -9
-76 -35 -112 -99 -137 -317 -127 -391 18 l-17 33 -48 -59 c-149 -187 -263
-415 -321 -645 -38 -153 -48 -253 -45 -457 3 -177 2 -189 -17 -210 -12 -13
-31 -37 -43 -55 -22 -33 -56 -48 -128 -56 -49 -6 -47 -10 -63 113 -17 121 -14
395 4 524 106 739 621 1352 1332 1585 176 58 325 84 569 99 11 1 84 -3 163 -8z
m750 -217 c374 -216 699 -488 938 -783 189 -233 354 -531 404 -726 28 -109 26
-145 -4 -73 -58 143 -124 189 -269 189 -137 0 -203 -33 -268 -132 -38 -59 -38
-59 -44 -31 -34 152 -127 352 -242 521 -24 35 -43 65 -43 68 0 11 -74 114 -81
114 -5 0 -9 5 -9 11 0 15 -81 129 -91 129 -5 0 -9 5 -9 10 0 18 -202 251 -338
390 -104 106 -211 200 -270 236 -2 2 -1 16 2 32 16 70 104 128 176 116 19 -3
86 -35 148 -71z m-274 -192 c93 -75 308 -300 430 -452 117 -145 322 -448 405
-596 65 -118 119 -248 137 -332 7 -36 14 -121 14 -188 l0 -121 -53 -35 c-77
-51 -133 -64 -193 -43 -101 34 -159 18 -272 -73 -91 -74 -103 -75 -161 -12
-42 46 -52 51 -89 51 -28 0 -65 -12 -113 -36 -58 -30 -86 -38 -155 -43 -92 -7
-119 -23 -155 -93 -23 -46 -49 -190 -49 -277 0 -84 -12 -127 -47 -163 -32 -33
-77 -38 -93 -9 -18 35 -11 69 21 102 78 80 120 245 82 319 -53 103 -246 116
-447 30 -106 -45 -177 -52 -260 -24 -125 43 -298 -44 -356 -178 -27 -62 -42
-209 -33 -319 8 -108 -1 -146 -40 -169 -32 -20 -92 -26 -114 -12 -6 4 -17 20
-23 36 -14 37 0 84 39 133 61 76 85 200 57 296 -31 107 -102 154 -219 145 -86
-7 -119 -26 -218 -129 -96 -100 -113 -106 -177 -64 -129 85 -372 30 -439 -100
-12 -23 -14 -47 -9 -110 6 -78 5 -83 -19 -105 -30 -28 -116 -40 -141 -19 -34
28 12 150 75 197 18 13 35 38 42 62 11 37 10 44 -19 102 -18 33 -32 66 -32 72
0 7 15 17 33 24 51 18 77 52 86 112 9 58 21 70 69 70 51 0 100 28 132 76 40
57 68 78 149 108 66 26 69 26 112 10 65 -24 230 -30 304 -11 33 9 68 19 78 22
16 7 17 3 12 -31 -8 -51 9 -74 63 -84 58 -10 126 4 172 37 70 50 129 177 118
254 -3 22 -8 24 -60 27 -32 2 -72 -1 -90 -6 l-33 -9 3 81 c4 97 -19 170 -74
235 -20 23 -33 46 -28 50 5 5 61 46 124 93 63 47 124 95 134 107 l19 21 40
-41 40 -41 28 60 c35 72 91 114 176 133 95 22 184 -16 198 -82 9 -41 -4 -91
-25 -96 -17 -4 -16 -8 7 -41 15 -23 23 -46 20 -61 -4 -22 -2 -23 32 -18 125
17 256 115 279 209 46 181 -29 366 -189 464 -58 36 -59 37 -42 58 79 95 113
120 198 142 69 19 69 19 45 -22 -50 -81 -14 -200 92 -305 63 -62 152 -113 189
-107 28 4 38 28 11 28 -28 0 -40 19 -47 76 -10 71 18 134 69 158 102 48 204
44 320 -13 l59 -29 -6 58 c-10 114 -88 239 -174 280 -51 24 -168 33 -227 17
-28 -8 -26 -5 22 48 29 31 66 76 83 101 18 24 34 44 37 44 2 0 32 -22 66 -49z
m-858 -66 c41 -17 69 -71 59 -115 -8 -39 -50 -78 -90 -86 -60 -11 -125 44
-125 106 0 51 54 109 103 110 10 0 33 -7 53 -15z m2204 -1616 c0 -112 -59
-383 -117 -539 -174 -465 -512 -842 -958 -1065 -246 -123 -477 -187 -737 -204
-709 -47 -1384 286 -1771 874 -70 107 -160 282 -154 300 6 15 111 45 158 45
71 0 108 -18 130 -63 179 -351 523 -650 914 -797 178 -67 313 -92 530 -98 209
-5 312 5 466 43 157 40 344 118 473 198 l39 24 -40 6 c-83 14 -153 95 -153
177 0 79 68 161 146 176 114 21 221 -74 211 -188 -2 -27 -1 -48 3 -48 12 0
213 212 261 275 168 219 291 516 328 788 6 43 11 80 11 82 0 14 103 32 243 44
13 1 17 -7 17 -30z m-1859 -1098 c23 -23 29 -38 29 -71 0 -35 -6 -48 -35 -77
-32 -32 -39 -35 -78 -30 -135 18 -128 207 8 207 38 0 52 -5 76 -29z"/>
<path d="M4334 4967 c105 -106 216 -225 246 -265 59 -77 86 -96 49 -34 -99
163 -204 286 -333 390 -66 54 -136 102 -149 102 -2 0 81 -87 187 -193z"/>
<path d="M3938 4469 c-44 -23 -49 -46 -12 -51 22 -2 35 -14 51 -46 4 -9 83 52
83 64 0 14 -56 54 -75 54 -5 -1 -27 -10 -47 -21z"/>
<path d="M4138 4266 c-32 -40 -34 -46 -13 -46 21 0 30 -27 16 -44 -9 -11 -7
-15 11 -20 36 -9 47 -7 68 14 26 26 25 64 -1 101 -27 38 -48 37 -81 -5z"/>
<path d="M4642 4150 l-40 -40 -34 19 c-31 18 -129 51 -153 51 -6 0 -21 -20
-32 -44 -12 -24 -38 -57 -58 -72 -73 -56 -204 -37 -221 31 -3 14 -11 25 -17
25 -19 0 -96 -65 -121 -104 -59 -91 -40 -248 44 -366 13 -18 20 -44 20 -74 0
-124 110 -204 216 -157 43 20 55 21 122 11 228 -31 421 89 452 282 5 29 16 79
26 111 15 51 16 68 6 128 -20 114 -97 239 -147 239 -13 0 -39 -17 -63 -40z
m45 -277 c-3 -10 -5 -2 -5 17 0 19 2 27 5 18 2 -10 2 -26 0 -35z m-10 -115
c-3 -7 -5 -2 -5 12 0 14 2 19 5 13 2 -7 2 -19 0 -25z m-404 -96 c25 -23 5 -35
-29 -17 -16 8 -37 15 -46 15 -10 0 -18 4 -18 9 0 25 62 21 93 -7z m-103 -169
c0 -7 -39 17 -46 28 -3 6 5 3 20 -6 14 -10 26 -19 26 -22z"/>
<path d="M3159 4081 l-24 -19 25 -21 c30 -24 46 -26 54 -6 3 8 16 15 28 15 22
0 22 0 3 19 -31 30 -59 34 -86 12z"/>
<path d="M3036 3948 c-22 -31 -20 -65 3 -78 27 -14 53 -2 46 21 -4 13 -1 19 9
19 22 0 20 13 -7 38 -29 27 -32 27 -51 0z"/>
<path d="M3600 3932 c-19 -9 -45 -33 -58 -52 -21 -31 -23 -44 -20 -105 l5 -71
-61 7 c-73 9 -214 -4 -272 -24 -153 -55 -255 -207 -256 -381 0 -74 13 -111 55
-153 38 -40 40 -40 312 -13 248 25 472 69 520 101 102 70 82 201 -49 327 l-64
62 34 21 c102 63 95 227 -11 279 -51 25 -89 25 -135 2z m180 -74 c21 -23 26
-53 10 -63 -6 -3 -13 2 -17 12 -3 10 -17 30 -31 46 -25 26 -25 27 -4 27 12 0
30 -10 42 -22z m-87 -9 c30 -16 37 -28 37 -66 0 -56 -69 -84 -110 -43 -29 29
-26 74 6 99 31 24 37 25 67 10z"/>
<path d="M4675 3354 c-35 -11 -100 -16 -216 -17 l-166 -2 -64 -33 c-53 -28
-79 -35 -147 -39 -91 -6 -95 -15 -15 -32 65 -13 101 -7 178 33 59 30 64 30
245 36 102 4 197 11 211 17 14 6 74 11 132 10 129 -1 167 17 55 26 -40 4 -93
9 -118 11 -26 3 -66 -1 -95 -10z"/>
<path d="M2050 3209 c-50 -11 -90 -59 -90 -110 0 -80 39 -118 120 -119 62 0
92 15 115 60 49 94 -35 192 -145 169z m6 -35 c-10 -7 -23 -20 -30 -30 -9 -12
-15 -14 -20 -6 -9 15 41 65 56 56 8 -5 6 -11 -6 -20z m70 -59 c15 -23 15 -27
0 -50 -29 -44 -96 -24 -96 29 0 50 67 65 96 21z"/>
<path d="M2880 3119 c-20 -6 -62 -30 -95 -54 -33 -25 -67 -45 -77 -45 -9 0
-50 14 -91 30 -152 61 -320 27 -466 -94 -58 -48 -88 -58 -132 -46 -33 10 -39
-4 -10 -20 44 -23 96 -12 167 37 105 72 193 106 290 111 73 4 88 1 139 -22 32
-14 74 -29 94 -32 36 -5 57 5 149 73 13 9 47 25 75 34 28 10 53 22 55 28 4 13
-48 13 -98 0z"/>
<path d="M5150 5305 c-85 -81 -158 -151 -163 -155 -4 -3 59 -75 140 -159 l148
-153 48 42 c26 23 47 46 47 51 0 5 -46 32 -101 60 l-102 51 30 30 30 30 93
-47 c50 -25 94 -44 97 -42 2 3 -15 46 -38 97 l-42 91 30 30 30 31 21 -49 c11
-26 32 -74 47 -106 l25 -59 50 42 c28 23 50 47 50 53 0 7 -65 79 -143 161
l-143 149 -154 -148z"/>
<path d="M1719 5398 c-48 -12 -139 -85 -177 -144 -43 -64 -56 -115 -42 -159
21 -64 76 -77 220 -54 89 15 120 8 120 -29 0 -40 -24 -68 -87 -104 -49 -28
-53 -32 -39 -46 14 -14 19 -13 58 4 24 10 72 47 108 81 105 98 144 204 103
273 -30 52 -78 60 -193 35 -97 -21 -147 -20 -160 6 -16 28 -7 34 55 34 66 0
110 28 110 70 0 34 -26 45 -76 33z"/>
<path d="M2386 1597 c-13 -28 -53 -116 -90 -195 -36 -78 -66 -145 -66 -148 0
-5 163 -84 174 -84 3 0 13 18 22 39 l16 40 46 -21 c26 -11 72 -22 103 -25 136
-13 229 95 185 212 -21 54 -70 99 -150 135 -34 15 -96 44 -139 64 l-77 36 -24
-53z m209 -140 c0 -71 -27 -122 -82 -154 -24 -14 -46 -24 -47 -22 -2 2 21 59
52 127 60 132 77 143 77 49z"/>
<path d="M4333 1529 c-57 -26 -103 -49 -103 -51 0 -2 32 -28 71 -58 l71 -55
-6 -60 c-3 -33 -9 -104 -12 -159 l-7 -98 30 16 c31 16 43 40 43 89 l0 27 47
-29 c26 -16 51 -27 55 -25 4 3 8 20 8 39 0 62 8 69 46 40 18 -14 36 -25 40
-25 12 0 193 85 194 90 0 5 -142 122 -330 271 l-45 36 -102 -48z m146 -248
l35 -29 -43 -22 c-24 -12 -44 -20 -46 -18 -6 6 7 98 14 98 3 0 21 -13 40 -29z"/>
<path d="M3930 1405 c-193 -38 -205 -42 -208 -64 -6 -38 9 -42 92 -25 43 9 79
14 82 12 2 -3 -25 -92 -61 -198 -36 -107 -65 -197 -65 -201 0 -3 101 14 225
39 131 26 225 50 225 56 0 6 -18 31 -39 56 l-39 44 -58 -44 c-32 -25 -64 -48
-70 -53 -7 -4 19 86 57 200 38 114 68 210 67 213 -2 4 -95 -12 -208 -35z"/>
<path d="M2895 1323 c-15 -65 -37 -161 -50 -213 -15 -63 -19 -97 -12 -102 15
-9 176 -42 182 -37 6 6 95 388 95 408 0 12 -20 21 -82 35 -45 10 -87 20 -93
22 -8 3 -21 -35 -40 -113z"/>
<path d="M3219 1350 c-1 -11 -2 -26 -3 -32 -1 -9 25 -14 86 -18 l88 -5 -111
-178 c-61 -98 -109 -180 -107 -182 6 -6 452 -25 457 -19 4 4 -37 102 -48 115
-4 4 -40 -8 -81 -26 -41 -19 -76 -32 -78 -31 -1 2 49 86 113 187 l116 184 -48
6 c-26 4 -123 9 -215 13 -162 5 -168 5 -169 -14z"/>
</g>
</svg>
